<?xml version="1.0" standalone="no"?>
<!DOCTYPE svg PUBLIC "-//W3C//DTD SVG 20010904//EN"
 "http://www.w3.org/TR/2001/REC-SVG-20010904/DTD/svg10.dtd">
<svg version="1.0" xmlns="http://www.w3.org/2000/svg"
 width="512.000000pt" height="512.000000pt" viewBox="0 0 512.000000 512.000000"
 preserveAspectRatio="xMidYMid meet">

<g transform="translate(0.000000,512.000000) scale(0.100000,-0.100000)"
fill="#000000" stroke="none">
<path d="M145 4775 l-25 -24 0 -2191 0 -2191 25 -24 24 -25 2391 0 2391 0 24
25 25 24 0 2191 0 2191 -25 24 -24 25 -2391 0 -2391 0 -24 -25z m4695 -655 l0
-520 -2280 0 -2280 0 0 520 0 520 2280 0 2280 0 0 -520z m-3960 -1560 l0 -880
-300 0 -300 0 0 880 0 880 300 0 300 0 0 -880z m3200 0 l0 -880 -1520 0 -1520
0 0 880 0 880 1520 0 1520 0 0 -880z m760 0 l0 -880 -300 0 -300 0 0 880 0
880 300 0 300 0 0 -880z m0 -1560 l0 -520 -2280 0 -2280 0 0 520 0 520 2280 0
2280 0 0 -520z"/>
<path d="M465 4455 l-25 -24 0 -311 0 -311 25 -24 24 -25 311 0 311 0 24 25
25 24 0 311 0 311 -25 24 -24 25 -311 0 -311 0 -24 -25z m535 -335 l0 -200
-200 0 -200 0 0 200 0 200 200 0 200 0 0 -200z"/>
<path d="M1345 4455 l-25 -24 0 -311 0 -311 25 -24 24 -25 311 0 311 0 24 25
25 24 0 311 0 311 -25 24 -24 25 -311 0 -311 0 -24 -25z m535 -335 l0 -200
-200 0 -200 0 0 200 0 200 200 0 200 0 0 -200z"/>
<path d="M2225 4455 l-25 -24 0 -311 0 -311 25 -24 24 -25 311 0 311 0 24 25
25 24 0 311 0 311 -25 24 -24 25 -311 0 -311 0 -24 -25z m535 -335 l0 -200
-200 0 -200 0 0 200 0 200 200 0 200 0 0 -200z"/>
<path d="M3105 4455 l-25 -24 0 -311 0 -311 25 -24 24 -25 311 0 311 0 24 25
25 24 0 311 0 311 -25 24 -24 25 -311 0 -311 0 -24 -25z m535 -335 l0 -200
-200 0 -200 0 0 200 0 200 200 0 200 0 0 -200z"/>
<path d="M3985 4455 l-25 -24 0 -311 0 -311 25 -24 24 -25 311 0 311 0 24 25
25 24 0 311 0 311 -25 24 -24 25 -311 0 -311 0 -24 -25z m535 -335 l0 -200
-200 0 -200 0 0 200 0 200 200 0 200 0 0 -200z"/>
<path d="M2192 3183 c-35 -31 -512 -839 -512 -868 0 -14 11 -37 25 -50 24 -25
24 -25 240 -25 l215 0 0 -135 c0 -131 1 -137 25 -160 15 -16 36 -25 55 -25 19
0 40 9 55 25 24 23 25 29 25 160 l0 135 55 0 c67 0 105 29 105 80 0 51 -38 80
-105 80 l-55 0 0 375 0 376 -25 24 c-29 30 -74 33 -103 8z m-32 -573 l0 -210
-130 0 -129 0 126 210 c69 116 127 210 129 210 2 0 4 -94 4 -210z"/>
<path d="M2665 3175 l-25 -24 0 -591 0 -591 25 -24 c15 -16 36 -25 55 -25 19
0 40 9 55 25 24 24 25 27 25 187 l0 163 44 63 44 62 171 -244 c181 -259 193
-270 251 -246 28 11 50 47 50 78 0 10 -83 137 -185 282 -102 145 -185 267
-185 270 0 3 83 125 185 270 134 192 185 272 185 293 0 55 -69 95 -118 68 -9
-5 -111 -144 -227 -309 l-210 -301 -5 290 c-5 291 -5 291 -29 310 -32 26 -77
24 -106 -6z"/>
<path d="M465 1335 l-25 -24 0 -311 0 -311 25 -24 24 -25 311 0 311 0 24 25
25 24 0 311 0 311 -25 24 -24 25 -311 0 -311 0 -24 -25z m535 -335 l0 -200
-200 0 -200 0 0 200 0 200 200 0 200 0 0 -200z"/>
<path d="M1345 1335 l-25 -24 0 -311 0 -311 25 -24 24 -25 311 0 311 0 24 25
25 24 0 311 0 311 -25 24 -24 25 -311 0 -311 0 -24 -25z m535 -335 l0 -200
-200 0 -200 0 0 200 0 200 200 0 200 0 0 -200z"/>
<path d="M2225 1335 l-25 -24 0 -311 0 -311 25 -24 24 -25 311 0 311 0 24 25
25 24 0 311 0 311 -25 24 -24 25 -311 0 -311 0 -24 -25z m535 -335 l0 -200
-200 0 -200 0 0 200 0 200 200 0 200 0 0 -200z"/>
<path d="M3105 1335 l-25 -24 0 -311 0 -311 25 -24 24 -25 311 0 311 0 24 25
25 24 0 311 0 311 -25 24 -24 25 -311 0 -311 0 -24 -25z m535 -335 l0 -200
-200 0 -200 0 0 200 0 200 200 0 200 0 0 -200z"/>
<path d="M3985 1335 l-25 -24 0 -311 0 -311 25 -24 24 -25 311 0 311 0 24 25
25 24 0 311 0 311 -25 24 -24 25 -311 0 -311 0 -24 -25z m535 -335 l0 -200
-200 0 -200 0 0 200 0 200 200 0 200 0 0 -200z"/>
</g>
</svg>
